<?xml version="1.0" encoding="UTF-8" standalone="no"?>
<!-- Created with Inkscape (http://www.inkscape.org/) -->
<svg
   xmlns:dc="http://purl.org/dc/elements/1.1/"
   xmlns:cc="http://creativecommons.org/ns#"
   xmlns:rdf="http://www.w3.org/1999/02/22-rdf-syntax-ns#"
   xmlns:svg="http://www.w3.org/2000/svg"
   xmlns="http://www.w3.org/2000/svg"
   xmlns:sodipodi="http://sodipodi.sourceforge.net/DTD/sodipodi-0.dtd"
   xmlns:inkscape="http://www.inkscape.org/namespaces/inkscape"
   id="svg2"
   sodipodi:version="0.32"
   inkscape:version="0.46"
   width="1052.3625"
   height="1488.1875"
   xml:space="preserve"
   sodipodi:docname="agurk_logo.svg"
   inkscape:output_extension="org.inkscape.output.svg.inkscape"><metadata
     id="metadata7"><rdf:RDF><cc:Work
         rdf:about=""><dc:format>image/svg+xml</dc:format><dc:type
           rdf:resource="http://purl.org/dc/dcmitype/StillImage" /></cc:Work></rdf:RDF></metadata><defs
     id="defs5"><inkscape:perspective
       sodipodi:type="inkscape:persp3d"
       inkscape:vp_x="0 : 526.18109 : 1"
       inkscape:vp_y="0 : 1000 : 0"
       inkscape:vp_z="744.09448 : 526.18109 : 1"
       inkscape:persp3d-origin="372.04724 : 350.78739 : 1"
       id="perspective9" /><clipPath
       clipPathUnits="userSpaceOnUse"
       id="clipPath17"><path
         d="M 0,1190.551 L 841.89,1190.551 L 841.89,0 L 0,0 L 0,1190.551 z"
         id="path19" /></clipPath><linearGradient
       x1="0"
       y1="0"
       x2="1"
       y2="0"
       gradientUnits="userSpaceOnUse"
       gradientTransform="matrix(0,7.0703125,7.0703125,0,390.27979,490.68555)"
       spreadMethod="pad"
       id="linearGradient65"><stop
         style="stop-opacity:1;stop-color:#cee18a"
         offset="0"
         id="stop67" /><stop
         style="stop-opacity:1;stop-color:#fff8cc"
         offset="1"
         id="stop69" /></linearGradient><linearGradient
       x1="0"
       y1="0"
       x2="1"
       y2="0"
       gradientUnits="userSpaceOnUse"
       gradientTransform="matrix(0,-18.005859,-18.005859,0,390.2793,467.13477)"
       spreadMethod="pad"
       id="linearGradient85"><stop
         style="stop-opacity:1;stop-color:#cee18a"
         offset="0"
         id="stop87" /><stop
         style="stop-opacity:1;stop-color:#b6c378"
         offset="1"
         id="stop89" /></linearGradient><clipPath
       clipPathUnits="userSpaceOnUse"
       id="clipPath97"><path
         d="M 0,1190.551 L 841.89,1190.551 L 841.89,0 L 0,0 L 0,1190.551 z"
         id="path99" /></clipPath><linearGradient
       x1="0"
       y1="0"
       x2="1"
       y2="0"
       gradientUnits="userSpaceOnUse"
       gradientTransform="matrix(0,7.0712891,7.0712891,0,366.45361,654.79492)"
       spreadMethod="pad"
       id="linearGradient157"><stop
         style="stop-opacity:1;stop-color:#cee18a"
         offset="0"
         id="stop159" /><stop
         style="stop-opacity:1;stop-color:#fff8cc"
         offset="1"
         id="stop161" /></linearGradient><linearGradient
       x1="0"
       y1="0"
       x2="1"
       y2="0"
       gradientUnits="userSpaceOnUse"
       gradientTransform="matrix(0,-18.005371,-18.005371,0,366.45312,631.24316)"
       spreadMethod="pad"
       id="linearGradient177"><stop
         style="stop-opacity:1;stop-color:#cee18a"
         offset="0"
         id="stop179" /><stop
         style="stop-opacity:1;stop-color:#b6c378"
         offset="1"
         id="stop181" /></linearGradient><clipPath
       clipPathUnits="userSpaceOnUse"
       id="clipPath189"><path
         d="M 0,1190.551 L 841.89,1190.551 L 841.89,0 L 0,0 L 0,1190.551 z"
         id="path191" /></clipPath><linearGradient
       x1="0"
       y1="0"
       x2="1"
       y2="0"
       gradientUnits="userSpaceOnUse"
       gradientTransform="matrix(0,6.6137695,6.6137695,0,406.97217,796.16699)"
       spreadMethod="pad"
       id="linearGradient249"><stop
         style="stop-opacity:1;stop-color:#cee18a"
         offset="0"
         id="stop251" /><stop
         style="stop-opacity:1;stop-color:#fff8cc"
         offset="1"
         id="stop253" /></linearGradient><linearGradient
       x1="0"
       y1="0"
       x2="1"
       y2="0"
       gradientUnits="userSpaceOnUse"
       gradientTransform="matrix(0,-16.841797,-16.841797,0,406.97168,774.14062)"
       spreadMethod="pad"
       id="linearGradient269"><stop
         style="stop-opacity:1;stop-color:#cee18a"
         offset="0"
         id="stop271" /><stop
         style="stop-opacity:1;stop-color:#b6c378"
         offset="1"
         id="stop273" /></linearGradient><clipPath
       clipPathUnits="userSpaceOnUse"
       id="clipPath281"><path
         d="M 0,1190.551 L 841.89,1190.551 L 841.89,0 L 0,0 L 0,1190.551 z"
         id="path283" /></clipPath><linearGradient
       x1="0"
       y1="0"
       x2="1"
       y2="0"
       gradientUnits="userSpaceOnUse"
       gradientTransform="matrix(0,6.6137695,6.6137695,0,382.95508,966.25244)"
       spreadMethod="pad"
       id="linearGradient345"><stop
         style="stop-opacity:1;stop-color:#cee18a"
         offset="0"
         id="stop347" /><stop
         style="stop-opacity:1;stop-color:#fff8cc"
         offset="1"
         id="stop349" /></linearGradient><linearGradient
       x1="0"
       y1="0"
       x2="1"
       y2="0"
       gradientUnits="userSpaceOnUse"
       gradientTransform="matrix(0,-16.84082,-16.84082,0,382.95508,944.22559)"
       spreadMethod="pad"
       id="linearGradient365"><stop
         style="stop-opacity:1;stop-color:#cee18a"
         offset="0"
         id="stop367" /><stop
         style="stop-opacity:1;stop-color:#b6c378"
         offset="1"
         id="stop369" /></linearGradient><clipPath
       clipPathUnits="userSpaceOnUse"
       id="clipPath377"><path
         d="M 0,1190.551 L 841.89,1190.551 L 841.89,0 L 0,0 L 0,1190.551 z"
         id="path379" /></clipPath><linearGradient
       x1="0"
       y1="0"
       x2="1"
       y2="0"
       gradientUnits="userSpaceOnUse"
       gradientTransform="matrix(0,5.5292969,5.5292969,0,317.48291,1100.5757)"
       spreadMethod="pad"
       id="linearGradient441"><stop
         style="stop-opacity:1;stop-color:#cee18a"
         offset="0"
         id="stop443" /><stop
         style="stop-opacity:1;stop-color:#fff8cc"
         offset="1"
         id="stop445" /></linearGradient><linearGradient
       x1="0"
       y1="0"
       x2="1"
       y2="0"
       gradientUnits="userSpaceOnUse"
       gradientTransform="matrix(0,-14.078125,-14.078125,0,317.48242,1082.1602)"
       spreadMethod="pad"
       id="linearGradient461"><stop
         style="stop-opacity:1;stop-color:#cee18a"
         offset="0"
         id="stop463" /><stop
         style="stop-opacity:1;stop-color:#b6c378"
         offset="1"
         id="stop465" /></linearGradient><clipPath
       clipPathUnits="userSpaceOnUse"
       id="clipPath473"><path
         d="M 0,1190.551 L 841.89,1190.551 L 841.89,0 L 0,0 L 0,1190.551 z"
         id="path475" /></clipPath><linearGradient
       x1="0"
       y1="0"
       x2="1"
       y2="0"
       gradientUnits="userSpaceOnUse"
       gradientTransform="matrix(0,7.0712891,7.0712891,0,390.27979,315.85937)"
       spreadMethod="pad"
       id="linearGradient533"><stop
         style="stop-opacity:1;stop-color:#cee18a"
         offset="0"
         id="stop535" /><stop
         style="stop-opacity:1;stop-color:#fff8cc"
         offset="1"
         id="stop537" /></linearGradient><linearGradient
       x1="0"
       y1="0"
       x2="1"
       y2="0"
       gradientUnits="userSpaceOnUse"
       gradientTransform="matrix(0,-18.004883,-18.004883,0,390.2793,292.30859)"
       spreadMethod="pad"
       id="linearGradient553"><stop
         style="stop-opacity:1;stop-color:#cee18a"
         offset="0"
         id="stop555" /><stop
         style="stop-opacity:1;stop-color:#b6c378"
         offset="1"
         id="stop557" /></linearGradient><clipPath
       clipPathUnits="userSpaceOnUse"
       id="clipPath565"><path
         d="M 0,1190.551 L 841.89,1190.551 L 841.89,0 L 0,0 L 0,1190.551 z"
         id="path567" /></clipPath><linearGradient
       x1="0"
       y1="0"
       x2="1"
       y2="0"
       gradientUnits="userSpaceOnUse"
       gradientTransform="matrix(0,6.6132812,6.6132812,0,296.52686,138.16699)"
       spreadMethod="pad"
       id="linearGradient625"><stop
         style="stop-opacity:1;stop-color:#cee18a"
         offset="0"
         id="stop627" /><stop
         style="stop-opacity:1;stop-color:#fff8cc"
         offset="1"
         id="stop629" /></linearGradient><linearGradient
       x1="0"
       y1="0"
       x2="1"
       y2="0"
       gradientUnits="userSpaceOnUse"
       gradientTransform="matrix(0,-16.839844,-16.839844,0,296.52637,116.13867)"
       spreadMethod="pad"
       id="linearGradient645"><stop
         style="stop-opacity:1;stop-color:#cee18a"
         offset="0"
         id="stop647" /><stop
         style="stop-opacity:1;stop-color:#b6c378"
         offset="1"
         id="stop649" /></linearGradient><clipPath
       clipPathUnits="userSpaceOnUse"
       id="clipPath657"><path
         d="M 0,1190.551 L 841.89,1190.551 L 841.89,0 L 0,0 L 0,1190.551 z"
         id="path659" /></clipPath></defs><sodipodi:namedview
     inkscape:window-height="847"
     inkscape:window-width="1335"
     inkscape:pageshadow="2"
     inkscape:pageopacity="0.0"
     guidetolerance="10.0"
     gridtolerance="10.0"
     objecttolerance="10.0"
     borderopacity="1.0"
     bordercolor="#666666"
     pagecolor="#ffffff"
     id="base"
     showgrid="false"
     inkscape:zoom="0.9388891"
     inkscape:cx="629.28874"
     inkscape:cy="1012.5307"
     inkscape:window-x="88"
     inkscape:window-y="22"
     inkscape:current-layer="g11" /><g
     id="g11"
     inkscape:groupmode="layer"
     inkscape:label="cucumber_logo"
     transform="matrix(1.25,0,0,-1.25,0,1488.1875)"
     style="display:inline"><text
   transform="scale(1,-1)"
   id="text21"
   x="140.01141"
   y="-384.80347"
   inkscape:export-filename="/Users/aslakhellesoy/scm/cucumber_site/images/cuke_logo.png"
   inkscape:export-xdpi="83.060699"
   inkscape:export-ydpi="83.060699"><tspan
     style="font-size:83.10620117px;font-variant:normal;font-weight:500;font-stretch:normal;writing-mode:lr-tb;fill:#204c23;fill-opacity:1;fill-rule:nonzero;stroke:none;font-family:Amasis MT;-inkscape-font-specification:AmasisMT-Medium"
     sodipodi:role="line"
     id="tspan23"
     x="140.01141"
     y="-384.80347" /></text>



<text
   transform="scale(1,-1)"
   id="text25"
   x="128.46941"
   y="-548.35718"
   inkscape:export-filename="/Users/aslakhellesoy/scm/cucumber_site/images/cuke_logo.png"
   inkscape:export-xdpi="83.060699"
   inkscape:export-ydpi="83.060699"><tspan
     style="font-size:90.76989746px;font-variant:normal;font-weight:500;font-stretch:normal;writing-mode:lr-tb;fill:#204c23;fill-opacity:1;fill-rule:nonzero;stroke:none;font-family:Aachen Medium Plain;-inkscape-font-specification:AachenMediumPlain"
     sodipodi:role="line"
     id="tspan27"
     x="128.46941"
     y="-548.35718" /></text>



<text
   transform="scale(1,-1)"
   id="text29"
   sodipodi:linespacing="125%"
   style="line-height:125%"
   x="125.22531"
   y="-705.60126"
   inkscape:export-filename="/Users/aslakhellesoy/scm/cucumber_site/images/cuke_logo.png"
   inkscape:export-xdpi="83.060699"
   inkscape:export-ydpi="83.060699"><tspan
     style="font-size:72px;font-style:normal;font-variant:normal;font-weight:bold;font-stretch:normal;text-align:start;line-height:125%;writing-mode:lr-tb;text-anchor:start;fill:#204c23;fill-opacity:1;fill-rule:nonzero;stroke:none;font-family:Kozuka Mincho Pro B;-inkscape-font-specification:Kozuka Mincho Pro B Bold"
     x="125.22531"
     y="-705.60126"
     sodipodi:role="line"
     id="tspan31" /></text>



<text
   transform="scale(1,-1)"
   id="text33"
   x="138.48701"
   y="-208.71259"
   inkscape:export-filename="/Users/aslakhellesoy/scm/cucumber_site/images/cuke_logo.png"
   inkscape:export-xdpi="83.060699"
   inkscape:export-ydpi="83.060699"><tspan
     style="font-size:79.5809021px;font-variant:normal;font-weight:bold;font-stretch:normal;writing-mode:lr-tb;fill:#204c23;fill-opacity:1;fill-rule:nonzero;stroke:none;font-family:Alte Haas Grotesk;-inkscape-font-specification:AlteHaasGrotesk_Bold"
     sodipodi:role="line"
     id="tspan35"
     x="138.48701"
     y="-208.71259" /></text>



<text
   transform="scale(1,-1)"
   id="text37"
   x="148.03671"
   y="-34.90789"
   inkscape:export-filename="/Users/aslakhellesoy/scm/cucumber_site/images/cuke_logo.png"
   inkscape:export-xdpi="83.060699"
   inkscape:export-ydpi="83.060699"><tspan
     style="font-size:79.5809021px;font-variant:normal;font-weight:500;font-stretch:normal;writing-mode:lr-tb;fill:#204c23;fill-opacity:1;fill-rule:nonzero;stroke:none;font-family:Haettenschweiler;-inkscape-font-specification:Haettenschweiler"
     x="148.03671"
     y="-34.90789"
     sodipodi:role="line"
     id="tspan39" /></text>



<g
   id="g3317"
   inkscape:export-filename="/Users/aslakhellesoy/scm/cucumber_site/images/cuke_logo.png"
   inkscape:export-xdpi="83.060699"
   inkscape:export-ydpi="83.060699"
   transform="matrix(2.715961,0,0,2.715961,-880.89646,-1281.4669)"><g
     transform="translate(435.4258,774.5776)"
     id="g225"><path
       id="path227"
       style="fill:#cee18a;fill-opacity:1;fill-rule:nonzero;stroke:none"
       d="M 0,0 C 0,-5.683 -4.607,-10.291 -10.291,-10.291 L -27.965,-10.291 L -45.458,-22.639 C -48.546,-24.568 -49.959,-23.153 -49.085,-21.481 L -44.042,-10.291 L -46.615,-10.291 C -52.299,-10.291 -56.906,-5.683 -56.906,0 L -56.906,21.224 C -56.906,26.907 -52.299,31.514 -46.615,31.514 L -10.291,31.514 C -4.607,31.514 0,26.907 0,21.224 L 0,0 z" /></g><g
     transform="translate(435.4258,774.5776)"
     id="g229"><path
       id="path231"
       style="fill:none;stroke:#225c2b;stroke-width:2.44300008;stroke-linecap:butt;stroke-linejoin:miter;stroke-miterlimit:4;stroke-dasharray:none;stroke-opacity:1"
       d="M 0,0 C 0,-5.683 -4.607,-10.291 -10.291,-10.291 L -27.965,-10.291 L -45.458,-22.639 C -48.546,-24.568 -49.959,-23.153 -49.085,-21.481 L -44.042,-10.291 L -46.615,-10.291 C -52.299,-10.291 -56.906,-5.683 -56.906,0 L -56.906,21.224 C -56.906,26.907 -52.299,31.514 -46.615,31.514 L -10.291,31.514 C -4.607,31.514 0,26.907 0,21.224 L 0,0 z" /></g><g
     transform="translate(381.7979,795.8022)"
     id="g233"><path
       id="path235"
       style="fill:#71b72d;fill-opacity:1;fill-rule:nonzero;stroke:none"
       d="M 0,0 L 0,-21.226 C 0.008,-25.086 3.15,-28.228 7.012,-28.235 L 9.586,-28.235 L 14.658,-28.235 L 12.575,-32.862 L 10.012,-38.548 L 23.771,-28.836 L 24.62,-28.235 L 25.01,-28.235 L 25.662,-28.235 L 43.337,-28.235 C 47.199,-28.228 50.341,-25.086 50.348,-21.226 L 50.348,0 C 50.341,3.862 47.199,7.004 43.337,7.011 L 7.012,7.011 C 3.15,7.004 0.008,3.862 0,0 M 10.347,-31.859 L 10.878,-30.678 L 9.586,-30.678 L 7.012,-30.678 C 1.796,-30.676 -2.44,-26.441 -2.441,-21.226 L -2.441,0 C -2.44,5.216 1.796,9.451 7.012,9.453 L 43.337,9.453 C 48.554,9.451 52.789,5.216 52.791,0 L 52.791,-21.226 C 52.789,-26.441 48.554,-30.676 43.337,-30.678 L 25.662,-30.678 L 25.397,-30.678 L 25.179,-30.832 L 7.526,-42.866 L 5.146,-44.346 L 10.347,-31.859 z" /></g><g
     id="g3237"><g
       id="g3203"><g
         id="g3174"><g
           id="g3142"><g
             id="g237"><g
               id="g239"><g
                 id="g245"><g
                   id="g247"><path
                     id="path255"
                     style="fill:url(#linearGradient249);stroke:none"
                     d="M 388.498,802.781 C 384.852,802.771 381.894,799.814 381.883,796.172 L 381.883,796.172 L 383.979,796.172 C 383.98,798.65 386.015,800.686 388.498,800.687 L 388.498,800.687 L 425.449,800.687 C 427.927,800.686 429.961,798.651 429.965,796.168 L 429.965,796.168 L 432.06,796.167 C 432.05,799.812 429.092,802.771 425.452,802.781 L 425.452,802.781 L 388.498,802.781 z" /></g></g></g></g><g
             id="g257"><g
               id="g259"><g
                 id="g265"><g
                   id="g267"><path
                     id="path275"
                     style="fill:url(#linearGradient269);stroke:none"
                     d="M 381.883,774.139 C 381.895,770.495 384.853,767.536 388.494,767.526 L 388.494,767.526 L 396.418,767.526 L 391.854,757.299 L 406.369,767.526 L 425.448,767.526 C 429.094,767.536 432.05,770.493 432.06,774.133 L 432.06,774.133 L 429.967,774.133 C 429.965,771.656 427.929,769.62 425.447,769.619 L 425.447,769.619 C 425.447,769.62 405.466,769.62 405.466,769.62 L 405.466,769.62 L 397.267,764.159 L 399.486,769.62 C 399.486,769.62 388.495,769.62 388.495,769.619 L 388.495,769.619 C 386.018,769.62 383.982,771.656 383.979,774.139 L 383.979,774.139 L 381.883,774.139 z" /></g></g></g></g><g
             transform="translate(405.6987,787.0479)"
             id="g285"><path
               id="path287"
               style="fill:#ffffff;fill-opacity:1;fill-rule:nonzero;stroke:none"
               d="M 0,0 C -1.952,3.414 2.571,9.207 -3.169,10.796 C -6.021,11.586 -7.688,8.229 -6.046,6.015 C -4.61,4.077 -1.044,2.588 -0.18,0.439" /></g><g
             transform="translate(402.1519,785.8706)"
             id="g289"><path
               id="path291"
               style="fill:#ffffff;fill-opacity:1;fill-rule:nonzero;stroke:none"
               d="M 0,0 C -3.794,1.034 -4.693,8.327 -9.875,5.393 C -12.449,3.934 -11.254,0.383 -8.528,-0.023 C -6.142,-0.377 -2.569,1.09 -0.438,0.184" /></g><g
             transform="translate(402.1064,782.8896)"
             id="g293"><path
               id="path295"
               style="fill:#ffffff;fill-opacity:1;fill-rule:nonzero;stroke:none"
               d="M 0,0 C -3.415,-1.954 -9.208,2.569 -10.798,-3.171 C -11.586,-6.024 -8.23,-7.688 -6.015,-6.049 C -4.076,-4.613 -2.59,-1.049 -0.441,-0.183" /></g><g
             transform="translate(406.1646,782.0068)"
             id="g297"><path
               id="path299"
               style="fill:#ffffff;fill-opacity:1;fill-rule:nonzero;stroke:none"
               d="M 0,0 C -1.033,-3.794 -8.326,-4.693 -5.391,-9.876 C -3.933,-12.451 -0.383,-11.255 0.023,-8.529 C 0.379,-6.143 -1.09,-2.571 -0.181,-0.438" /></g><g
             transform="translate(408.9282,782.7983)"
             id="g301"><path
               id="path303"
               style="fill:#ffffff;fill-opacity:1;fill-rule:nonzero;stroke:none"
               d="M 0,0 C 1.951,-3.412 -2.57,-9.208 3.169,-10.797 C 6.021,-11.587 7.686,-8.23 6.046,-6.014 C 4.608,-4.079 1.046,-2.589 0.181,-0.441" /></g><g
             transform="translate(413.2964,784.3018)"
             id="g305"><path
               id="path307"
               style="fill:#ffffff;fill-opacity:1;fill-rule:nonzero;stroke:none"
               d="M 0,0 C 3.796,-1.034 4.695,-8.327 9.877,-5.393 C 12.453,-3.936 11.256,-0.383 8.53,0.022 C 6.145,0.377 2.572,-1.091 0.439,-0.183" /></g><g
             transform="translate(411.9595,786.8994)"
             id="g309"><path
               id="path311"
               style="fill:#ffffff;fill-opacity:1;fill-rule:nonzero;stroke:none"
               d="M 0,0 C 3.413,1.953 9.206,-2.569 10.794,3.171 C 11.584,6.023 8.227,7.688 6.014,6.048 C 4.076,4.611 2.587,1.047 0.438,0.182" /></g><g
             transform="translate(408.707,787.2192)"
             id="g313"><path
               id="path315"
               style="fill:#ffffff;fill-opacity:1;fill-rule:nonzero;stroke:none"
               d="M 0,0 C 1.032,3.795 8.328,4.694 5.393,9.877 C 3.935,12.453 0.383,11.255 -0.024,8.529 C -0.378,6.144 1.09,2.572 0.184,0.44" /></g></g></g></g></g></g><text
   transform="scale(1,-1)"
   id="text3355"
   sodipodi:linespacing="125%"
   style="line-height:125%;fill:#225c2b;fill-opacity:1;display:inline"
   x="123.63585"
   y="-710.27606"
   inkscape:export-filename="/Users/aslakhellesoy/scm/cucumber_site/images/cuke_logo.png"
   inkscape:export-xdpi="83.060699"
   inkscape:export-ydpi="83.060699"><tspan
     style="font-size:72px;font-style:normal;font-variant:normal;font-weight:bold;font-stretch:normal;text-align:start;line-height:125%;writing-mode:lr-tb;text-anchor:start;fill:#225c2b;fill-opacity:1;fill-rule:nonzero;stroke:none;font-family:Kozuka Mincho Pro B;-inkscape-font-specification:Kozuka Mincho Pro B Bold"
     x="123.63585"
     y="-710.27606"
     sodipodi:role="line"
     id="tspan3357">Agurk</tspan></text>




</g></svg>