<?xml version="1.0" encoding="UTF-8" standalone="no"?>
<!-- Created with Inkscape (http://www.inkscape.org/) -->
<svg
   xmlns:dc="http://purl.org/dc/elements/1.1/"
   xmlns:cc="http://creativecommons.org/ns#"
   xmlns:rdf="http://www.w3.org/1999/02/22-rdf-syntax-ns#"
   xmlns:svg="http://www.w3.org/2000/svg"
   xmlns="http://www.w3.org/2000/svg"
   xmlns:sodipodi="http://sodipodi.sourceforge.net/DTD/sodipodi-0.dtd"
   xmlns:inkscape="http://www.inkscape.org/namespaces/inkscape"
   id="svg2403"
   sodipodi:version="0.32"
   inkscape:version="0.46"
   width="354.33125"
   height="354.33125"
   xml:space="preserve"
   sodipodi:docname="podcaster_3col.svg"
   inkscape:export-filename="/Users/aslakhellesoy/scm/cucumber_site/images/podcast.png"
   inkscape:export-xdpi="35.98"
   inkscape:export-ydpi="35.98"
   inkscape:output_extension="org.inkscape.output.svg.inkscape"><metadata
     id="metadata2408"><rdf:RDF><cc:Work
         rdf:about=""><dc:format>image/svg+xml</dc:format><dc:type
           rdf:resource="http://purl.org/dc/dcmitype/StillImage" /></cc:Work></rdf:RDF></metadata><defs
     id="defs2406"><inkscape:perspective
       sodipodi:type="inkscape:persp3d"
       inkscape:vp_x="0 : 526.18109 : 1"
       inkscape:vp_y="0 : 1000 : 0"
       inkscape:vp_z="744.09448 : 526.18109 : 1"
       inkscape:persp3d-origin="372.04724 : 350.78739 : 1"
       id="perspective2410" /><clipPath
       clipPathUnits="userSpaceOnUse"
       id="clipPath2418"><path
         d="M 0,283.465 L 283.465,283.465 L 283.465,0 L 0,0 L 0,283.465 z"
         id="path2420" /></clipPath></defs><sodipodi:namedview
     inkscape:window-height="713"
     inkscape:window-width="640"
     inkscape:pageshadow="2"
     inkscape:pageopacity="0.0"
     guidetolerance="10.0"
     gridtolerance="10.0"
     objecttolerance="10.0"
     borderopacity="1.0"
     bordercolor="#666666"
     pagecolor="#ffffff"
     id="base"
     showgrid="false"
     inkscape:zoom="1.3941757"
     inkscape:cx="177.16562"
     inkscape:cy="177.16562"
     inkscape:window-x="0"
     inkscape:window-y="22"
     inkscape:current-layer="g2412" /><g
     id="g2412"
     inkscape:groupmode="layer"
     inkscape:label="podcaster_3col"
     transform="matrix(1.25,0,0,-1.25,0,354.33125)"><g
       id="g2414"><g
         id="g2416"
         clip-path="url(#clipPath2418)"><path
           d="M 58.86,147.19 C 58.542,148.204 58.473,149.155 58.609,150.042 C 56.016,150.066 53.266,149.971 50.455,149.714 C 37.323,148.516 22.802,143.746 16.133,130.677 C 10.626,119.881 11.396,93.864 19.622,76.696 C 30.026,54.978 43.759,52.164 55.776,51.918 C 57.06,51.892 58.326,51.893 59.564,51.905 C 60.783,51.917 61.978,51.939 63.141,51.949 C 62.768,52.88 62.672,53.941 62.954,55.145 C 69.858,84.56 66.808,121.904 58.86,147.19 M 276.315,129.761 C 270.394,139.838 259.554,144.576 248.752,146.514 C 246.398,146.935 244.048,147.229 241.75,147.411 C 253.462,130.461 254.412,79.44 244.523,57.217 C 244.383,56.898 244.196,56.604 244.006,56.309 C 254.332,56.923 267.527,60.631 275.81,79.477 C 287.605,106.328 276.315,129.751 276.315,129.761"
           style="fill:#00a0c6;fill-opacity:1;fill-rule:nonzero;stroke:none"
           id="path2422" /><path
           d="M 185.502,50.989 C 185.502,95.051 151.72,132.058 110.198,133.482 L 110.198,153.218 C 161.617,150.916 203.454,105.135 203.454,51.165 L 185.502,50.989 z M 153.789,50.697 C 153.789,63.297 149.251,75.151 141.004,84.14 C 132.774,93.193 121.825,98.309 110.169,98.492 L 110.169,118.23 C 144.122,117.344 171.741,87.125 171.741,50.869 L 153.789,50.697 z M 122.591,50.48 C 115.727,50.414 110.157,56.479 110.157,64.029 C 110.157,71.582 115.727,77.672 122.591,77.644 C 129.458,77.608 135.027,71.546 135.027,64.093 C 135.027,56.644 129.458,50.549 122.591,50.48 M 192.216,166.123 L 118.028,170.129 C 103.391,170.919 91.424,158.891 90.521,142.927 C 98.486,120.731 98.488,79.493 90.486,57.429 C 91.037,41.064 103.153,28.231 118.028,28.547 L 192.216,30.144 C 207.429,30.469 219.777,43.521 219.777,59.283 L 219.777,136.08 C 219.777,151.849 207.429,165.3 192.216,166.123 M 193.208,171.19 L 113.315,175.737 C 101.177,176.428 87.201,168.027 80.756,156.206 C 82.807,155.347 84.574,154.095 85.803,152.406 C 86.728,151.138 87.585,149.659 88.39,148.031 C 90.691,162.931 102.443,173.719 116.6,172.932 L 193.634,168.659 C 209.448,167.781 222.269,153.818 222.269,137.463 L 222.269,57.828 C 222.269,41.475 209.448,27.923 193.634,27.563 L 116.6,25.791 C 102.148,25.461 90.203,37.106 88.257,52.552 C 86.176,49.785 82.189,48.082 77.978,47.45 C 81.864,32.62 98.891,22.682 113.315,23.034 L 193.208,24.983 C 208.443,25.355 220.992,37.521 222.692,52.829 C 222.821,53.992 222.896,55.174 222.896,56.371 L 222.896,138.84 C 222.896,143.009 222.086,147.026 220.628,150.731 C 216.161,162.081 205.566,170.487 193.208,171.19"
           style="fill:#fb9e3a;fill-opacity:1;fill-rule:nonzero;stroke:none"
           id="path2424" /><path
           d="M 241.75,147.411 C 244.048,147.229 246.398,146.935 248.752,146.514 C 249.633,159.055 248.604,172.342 245.607,185.316 C 245.519,185.713 245.419,186.106 245.326,186.501 C 245.229,186.916 245.125,187.331 245.024,187.746 C 238.029,216.363 221.571,242.732 195.081,256.38 C 181.43,263.414 166.157,266.138 150.902,265.255 C 147.538,265.41 144.082,265.396 140.526,265.179 C 82.595,261.651 47.262,210.4 50.455,149.714 C 53.266,149.971 56.016,150.066 58.609,150.042 C 58.473,149.155 58.542,148.204 58.86,147.19 C 66.808,121.904 69.858,84.56 62.954,55.145 C 62.672,53.941 62.768,52.88 63.141,51.949 C 64.736,47.983 71.613,46.494 77.978,47.45 C 82.189,48.082 86.176,49.785 88.257,52.552 C 88.609,53.017 88.906,53.514 89.14,54.04 C 89.614,55.104 90.058,56.249 90.486,57.429 C 98.488,79.493 98.486,120.731 90.521,142.927 C 89.863,144.76 89.156,146.479 88.39,148.031 C 87.585,149.659 86.728,151.138 85.803,152.406 C 84.574,154.095 82.807,155.347 80.756,156.206 C 74.574,158.796 65.807,157.801 61.365,154.324 C 62.019,178.675 68.391,202.717 82.109,223.121 C 96.138,243.989 117.732,259.277 142.826,263.016 C 145.065,263.349 147.261,263.717 149.522,263.87 C 155.249,264.122 160.908,263.872 166.452,263.154 C 216.594,251.606 240.724,196.813 237.772,150.897 C 232.732,153.496 225.295,153.173 220.628,150.731 C 222.086,147.026 222.896,143.009 222.896,138.84 L 222.896,56.371 C 222.896,55.174 222.821,53.992 222.692,52.829 C 227.996,49.355 240.311,50.551 244.006,56.309 C 244.196,56.604 244.383,56.898 244.523,57.217 C 254.412,79.44 253.462,130.461 241.75,147.411 M 55.776,51.918 C 56.864,46.364 58.358,37.41 55.647,31.445 C 53.317,26.785 49.225,25.861 44.051,24.696 C 42.147,24.261 40.183,23.823 38.177,23.147 C 23.333,18.634 16.602,18.492 1.902,22.02 L 1.037,18.409 C 16.64,14.665 23.948,14.938 39.303,19.614 C 41.185,20.241 43.056,20.657 44.864,21.07 C 50.265,22.284 55.851,23.55 59.001,29.849 C 62.085,36.63 60.713,45.891 59.564,51.905 C 58.326,51.893 57.06,51.892 55.776,51.918"
           style="fill:#000000;fill-opacity:1;fill-rule:nonzero;stroke:none"
           id="path2426" /></g></g><path
       style="opacity:1;fill:#ffffff;fill-opacity:1;stroke:none;stroke-width:0;stroke-miterlimit:4;stroke-dasharray:none;stroke-dashoffset:0;stroke-opacity:1"
       d="M 232.25193,288.99224 C 232.25193,288.24504 231.91424,284.29109 231.50149,280.20568 C 229.68295,262.20546 223.93695,246.19383 213.78874,230.84769 C 208.69436,223.14398 194.33829,208.61274 186.95752,203.68908 C 175.33076,195.93296 160.66119,190.0527 149.04865,188.49338 C 145.69541,188.04311 141.90285,187.52266 140.62073,187.33683 L 138.2896,186.99893 L 138.2896,175.09757 L 138.2896,163.19618 L 143.79,163.69461 C 178.65359,166.85386 211.68953,187.45289 232.45851,218.98244 C 244.98798,238.00354 253.77002,265.15755 253.77002,284.87753 L 253.77002,290.35078 L 243.01098,290.35078 C 232.93074,290.35078 232.25193,290.26507 232.25193,288.99223 L 232.25193,288.99224 z"
       id="path2428"
       transform="matrix(0.8,0,0,-0.8,0,283.465)" /><path
       style="opacity:1;fill:#ffffff;fill-opacity:1;stroke:none;stroke-width:0;stroke-miterlimit:4;stroke-dasharray:none;stroke-dashoffset:0;stroke-opacity:1"
       d="M 232.25193,289.35088 C 232.25193,285.77585 230.51235,272.49727 229.37109,267.36076 C 221.06861,229.99357 192.50534,199.45756 157.2981,190.30995 C 153.664,189.36573 148.62664,188.39166 146.10397,188.14535 C 137.41556,187.29702 138.2896,188.75429 138.2896,175.11639 L 138.2896,163.19618 L 143.79,163.69461 C 177.53001,166.75205 209.5551,186.07999 230.64432,216.11336 C 235.72783,223.35286 243.48316,238.53315 246.40122,246.95596 C 250.91167,259.97509 253.77002,274.71948 253.77002,284.96654 L 253.77002,290.35078 L 243.01098,290.35078 C 234.289,290.35078 232.25193,290.16146 232.25193,289.35087 L 232.25193,289.35088 z"
       id="path2430"
       transform="matrix(0.8,0,0,-0.8,0,283.465)" /><path
       style="opacity:1;fill:#ffffff;fill-opacity:1;stroke:none;stroke-width:0;stroke-miterlimit:4;stroke-dasharray:none;stroke-dashoffset:0;stroke-opacity:1"
       d="M 192.5202,289.21621 C 192.28074,288.5922 192.08483,286.69696 192.08483,285.00457 C 192.08483,280.47054 188.98293,269.03497 186.32112,263.75588 C 179.14511,249.52389 166.78589,238.21193 153.53521,233.7481 C 149.98171,232.55103 141.69243,230.90727 138.82755,230.8316 C 138.53168,230.82378 138.2896,225.4443 138.2896,218.87719 L 138.2896,206.937 L 143.48981,207.38274 C 158.89309,208.70308 175.12798,216.36289 187.56728,228.17901 C 203.12905,242.96118 212.40283,262.72977 214.09997,284.73782 L 214.5328,290.35078 L 203.74421,290.35078 C 194.56806,290.35078 192.89051,290.1812 192.5202,289.21621 z"
       id="path2432"
       transform="matrix(0.8,0,0,-0.8,0,283.465)" /><path
       style="opacity:1;fill:#ffffff;fill-opacity:1;stroke:none;stroke-width:0;stroke-miterlimit:4;stroke-dasharray:none;stroke-dashoffset:0;stroke-opacity:1"
       d="M 148.73149,289.99779 C 144.51136,288.49444 142.44956,286.66485 140.26209,282.48222 C 135.88161,274.10637 138.99779,263.13978 146.88193,259.18539 C 159.62058,252.79615 173.08995,267.87994 166.70547,281.38491 C 164.596,285.84704 161.7852,288.53523 157.73485,289.96428 C 153.94332,291.30203 152.40864,291.30772 148.73148,289.9978 L 148.73149,289.99779 z"
       id="path2434"
       transform="matrix(0.8,0,0,-0.8,0,283.465)" /><path
       style="opacity:1;fill:#ffffff;fill-opacity:1;stroke:none;stroke-width:0;stroke-miterlimit:4;stroke-dasharray:none;stroke-dashoffset:0;stroke-opacity:1"
       d="M 141.15868,321.47986 C 129.34396,319.3698 120.12995,312.55179 114.95733,302.09185 C 111.44045,294.9801 110.45769,289.97487 111.87867,286.41219 L 112.97095,283.67366 L 113.45264,287.30497 C 115.47005,302.51288 127.26327,315.75467 141.07774,318.32329 C 147.10726,319.44438 242.04264,317.17812 247.59225,315.7806 C 258.77655,312.96417 268.32886,304.34584 272.43738,293.3648 C 275.11282,286.21408 275.3795,279.70351 275.11974,227.88266 C 274.88999,182.05325 274.7664,177.78466 273.56396,174.15309 C 268.5396,158.97863 257.2434,148.91125 242.95613,146.87478 C 240.02757,146.45736 216.48993,145.00591 190.65029,143.64936 C 147.08105,141.36202 143.33406,141.26177 139.05541,142.26888 C 126.67008,145.18414 117.56099,154.90219 114.02381,168.97389 L 112.71137,174.19509 L 111.79153,171.40797 C 109.28567,163.81514 118.60532,147.94231 128.83984,142.37198 C 130.86098,141.27193 134.78368,139.8988 137.55695,139.32055 C 142.23085,138.34603 146.36846,138.48012 194.18837,141.15598 C 238.30703,143.62473 246.43408,144.24914 250.31171,145.46804 C 263.26538,149.53994 272.91171,159.94957 276.27112,173.48164 C 277.29937,177.62352 277.43992,184.69121 277.43992,232.25193 C 277.43992,291.94907 277.48998,291.20581 272.87539,300.03381 C 267.92856,309.49745 256.73024,317.59009 246.59733,319.02406 C 244.03309,319.38693 225.31235,320.02395 204.99568,320.43964 C 184.67902,320.85534 162.40779,321.33149 155.50407,321.49777 C 148.60035,321.66406 142.14493,321.65599 141.15868,321.47985 L 141.15868,321.47986 z"
       id="path2436"
       transform="matrix(0.8,0,0,-0.8,0,283.465)"
       inkscape:export-filename="/Users/aslakhellesoy/scm/cucumber_site/images/podcast.png"
       inkscape:export-xdpi="75.82"
       inkscape:export-ydpi="75.82" /></g></svg>